<svg width="40" height="40" viewBox="0 0 40 40" fill="none" xmlns="http://www.w3.org/2000/svg">
<g clip-path="url(#clip0_344_452)">
<mask id="mask0_344_452" style="mask-type:luminance" maskUnits="userSpaceOnUse" x="-14" y="-15" width="72" height="73">
<path d="M51.7232 -14.1019H-7.29235C-10.7232 -14.1019 -13.5045 -11.3206 -13.5045 -7.8897V51.1259C-13.5045 54.5568 -10.7232 57.338 -7.29235 57.338H51.7232C55.1541 57.338 57.9354 54.5568 57.9354 51.1259V-7.8897C57.9354 -11.3206 55.1541 -14.1019 51.7232 -14.1019Z" fill="white"/>
</mask>
<g mask="url(#mask0_344_452)">
<g opacity="0.1">
<path d="M36.3791 5.95123C34.8385 10.0466 32.0166 14.4138 28.7832 18.2669C28.7832 18.2669 30.1421 19.2375 30.1483 19.3773C33.2233 15.2151 35.6026 10.5498 36.376 5.95123" fill="black"/>
<path d="M27.415 40.258C24.6118 36.9034 22.2046 32.2924 20.445 27.5851C20.445 27.5851 18.9277 28.2825 18.8065 28.2219C20.9109 32.9478 23.7995 37.3212 27.415 40.258Z" fill="black"/>
<path d="M26.3775 13.5596C37.1634 22.398 20.4325 34.9263 17.8606 33.2817C16.89 32.5906 18.1635 30.5763 18.5222 29.1319C17.1633 30.7005 14.9363 33.5612 16.1803 35.1376C20.0877 39.6026 40.0893 21.258 26.3775 13.5596Z" fill="black"/>
<path d="M25.6477 28.0666C12.5384 32.8173 10.3595 12.0143 13.0836 10.6492C14.1754 10.1693 15.2501 12.2939 16.3046 13.336C15.6616 11.3636 14.3384 7.98572 12.349 8.24663C6.52507 9.31979 12.0213 35.9156 25.6415 28.0666" fill="black"/>
<path d="M13.7095 19.8618C16.2642 6.13915 35.2828 14.8144 35.07 17.86C34.9302 19.0434 32.5587 18.8974 31.1206 19.2794C33.1473 19.7158 36.7255 20.2982 37.5083 18.4423C39.5412 12.8731 13.8555 4.12485 13.7095 19.8618Z" fill="black"/>
<path d="M19.7398 25.9467C16.8698 17.3444 16.2874 8.4998 19.5208 7.31017C21.6982 6.64236 23.9004 11.8233 26.2968 12.8545C25.5995 10.337 21.7712 2.64483 17.7612 3.00203C13.3879 3.66362 13.7575 15.8208 18.1977 26.7108C18.1977 26.7108 19.8594 25.9529 19.7383 25.9529" fill="black"/>
<path d="M27.7055 19.6801C21.6331 26.4079 14.2313 31.2736 11.5989 29.045C9.94799 27.4764 13.3709 23.0021 13.0851 20.4116C11.2401 22.2566 6.43656 29.3727 8.72264 32.6962C11.4467 36.1781 21.8381 29.8805 29.1141 20.6539C29.1141 20.6539 27.6402 19.5745 27.7008 19.6832" fill="black"/>
<path d="M2.02588 15.6888C6.3278 14.9061 11.5196 15.094 16.4769 15.8954C16.4769 15.8954 16.6167 14.2274 16.7316 14.1544C11.5864 13.645 6.36352 13.996 2.02588 15.6888Z" fill="black"/>
<path d="M18.2412 16.1004C27.1293 17.8599 35.0995 21.7239 34.5358 25.1328C34.0326 27.3537 28.4447 26.7107 26.3699 28.2871C28.8935 28.9238 37.4663 29.3975 39.1405 25.7277C40.7293 21.6028 29.9978 15.9062 18.35 14.3827C18.35 14.3827 18.1807 16.2044 18.2412 16.1004Z" fill="black"/>
</g>
</g>
<path d="M34.8261 4.39819C33.2855 8.49357 30.4637 12.8607 27.2302 16.7138C27.2302 16.7138 28.5891 17.6845 28.5953 17.8242C31.6704 13.6621 34.0496 8.99675 34.823 4.39819" fill="white"/>
<path d="M25.862 38.7049C23.0588 35.3504 20.6516 30.7394 18.892 26.0321C18.892 26.0321 17.3747 26.7294 17.2535 26.6689C19.3579 31.3948 22.2466 35.7681 25.862 38.7049Z" fill="white"/>
<path d="M24.8245 12.0066C35.6104 20.8449 18.8795 33.3733 16.3077 31.7286C15.337 31.0375 16.6105 29.0232 16.9693 27.5789C15.6104 29.1475 13.3833 32.0082 14.6273 33.5845C18.5347 38.0495 38.5364 19.705 24.8245 12.0066Z" fill="white"/>
<path d="M24.0947 26.5135C10.9855 31.2643 8.80656 10.4613 11.5306 9.09615C12.6224 8.61626 13.6971 10.7408 14.7516 11.7829C14.1086 9.81055 12.7854 6.43268 10.796 6.69359C4.97209 7.76675 10.4683 34.3626 24.0885 26.5135" fill="white"/>
<path d="M12.1565 18.3088C14.7112 4.58611 33.7298 13.2614 33.517 16.3069C33.3773 17.4903 31.0058 17.3443 29.5676 17.7264C31.5944 18.1628 35.1726 18.7452 35.9553 16.8893C37.9882 11.3201 12.3025 2.57182 12.1565 18.3088Z" fill="white"/>
<path d="M18.1868 24.3936C15.3168 15.7913 14.7344 6.94676 17.9679 5.75713C20.1452 5.08932 22.3474 10.2703 24.7438 11.3015C24.0465 8.784 20.2182 1.09179 16.2083 1.44899C11.8349 2.11058 12.2045 14.2678 16.6447 25.1577C16.6447 25.1577 18.3064 24.3998 18.1853 24.3998" fill="white"/>
<path d="M26.1525 18.1271C20.0801 24.8549 12.6783 29.7205 10.0459 27.4919C8.39501 25.9234 11.8179 21.449 11.5322 18.8586C9.68714 20.7036 4.88358 27.8196 7.16966 31.1431C9.89369 34.625 20.2851 28.3275 27.5611 19.1008C27.5611 19.1008 26.0873 18.0215 26.1478 18.1302" fill="white"/>
<path d="M0.4729 14.1358C4.77483 13.3531 9.96665 13.541 14.924 14.3424C14.924 14.3424 15.0637 12.6744 15.1787 12.6014C10.0334 12.092 4.81055 12.443 0.4729 14.1358Z" fill="white"/>
<path d="M16.6883 14.5473C25.5763 16.3069 33.5465 20.1709 32.9828 23.5798C32.4796 25.8007 26.8917 25.1577 24.8169 26.734C27.3406 27.3708 35.9134 27.8445 37.5875 24.1746C39.1763 20.0497 28.4448 14.3532 16.797 12.8297C16.797 12.8297 16.6277 14.6514 16.6883 14.5473Z" fill="white"/>
</g>
<defs>
<clipPath id="clip0_344_452">
<rect width="40" height="40" fill="white"/>
</clipPath>
</defs>
</svg>
